<?xml version="1.0"?>

<!-- Generator: Adobe Illustrator 21.1.0, SVG Export Plug-In . SVG Version: 6.00 Build 0) -->
<svg version="1.1" id="Layer_1" xmlns="http://www.w3.org/2000/svg" xmlns:xlink="http://www.w3.org/1999/xlink" x="0px" y="0px" width="445" height="338" viewBox="0 0 445 338" style="enable-background:new 0 0 445 338;" xml:space="preserve">
<style type="text/css"> .st0{fill:#1FBAB0;} .st1{fill:#16A6DF;} .st2{fill:#231F20;}
</style>
<g> <path class="st0" d="M411,232.9c-5,0-9,4-9,9c0,5,4,9,9,9s9-4,9-9C420,237,416,232.9,411,232.9z M411,252.9c-6.1,0-11-4.9-11-11 s4.9-11,11-11s11,4.9,11,11S417.1,252.9,411,252.9z M131,292.9c-5,0-9,4-9,9s4,9,9,9c5,0,9-4,9-9S136,292.9,131,292.9 M131,312.9 c-6.1,0-11-4.9-11-11s4.9-11,11-11c6.1,0,11,4.9,11,11S137.1,312.9,131,312.9 M131,23.2c-5,0-9,4-9,9s4,9,9,9c5,0,9-4,9-9 S136,23.2,131,23.2 M131,43.2c-6.1,0-11-4.9-11-11s4.9-11,11-11c6.1,0,11,4.9,11,11S137.1,43.2,131,43.2"></path> <path class="st1" d="M126,154.3c-12.7,0-23,10.3-23,23c0,12.7,10.3,23,23,23h190c12.7,0,23-10.3,23-23c0-12.7-10.3-23-23-23H126z M316,204.3H126c-14.9,0-27-12.1-27-27s12.1-27,27-27h190c14.9,0,27,12.1,27,27S330.9,204.3,316,204.3L316,204.3z"></path> <path class="st2" d="M129,168.3c-1.8,0-3.6,0.7-4.9,2c-2.7,2.7-2.7,7.1,0,9.9c2.7,2.7,7.1,2.7,9.9,0c1.3-1.3,2-3.1,2-4.9 c0-1.9-0.7-3.6-2-4.9C132.6,169,130.8,168.3,129,168.3 M129,184.3c-2.3,0-4.6-0.9-6.3-2.6c-3.5-3.5-3.5-9.2,0-12.7s9.2-3.5,12.7,0 c1.7,1.7,2.6,3.9,2.6,6.3c0,2.4-0.9,4.7-2.6,6.3C133.6,183.4,131.3,184.3,129,184.3"></path> <path class="st2" d="M117,188.3c-0.3,0-0.5-0.1-0.7-0.3c-0.4-0.4-0.4-1,0-1.4l6.4-6.4c0.4-0.4,1-0.4,1.4,0c0.4,0.4,0.4,1,0,1.4 l-6.4,6.4C117.5,188.2,117.3,188.3,117,188.3"></path> <g transform="translate(147 170)"> <path d="M4.8,12.7c-1.2,0-2.2-0.4-2.9-1.1c-0.7-0.8-1-1.8-1-3.2c0-1.4,0.3-2.5,1-3.3c0.7-0.8,1.7-1.2,2.9-1.2c0.4,0,0.8,0,1.2,0.1 c0.4,0.1,0.7,0.2,1,0.3L6.7,5.4C6.4,5.3,6.1,5.2,5.7,5.1C5.4,5,5.1,5,4.9,5C3.1,5,2.2,6.1,2.2,8.3c0,1.1,0.2,1.9,0.6,2.4 c0.4,0.6,1.1,0.8,1.9,0.8c0.7,0,1.4-0.2,2.2-0.5v1.1C6.4,12.6,5.7,12.7,4.8,12.7 M9.9,8.3c0,1.1,0.2,1.9,0.7,2.5 c0.4,0.6,1.1,0.9,1.9,0.9s1.5-0.3,1.9-0.9c0.4-0.6,0.7-1.4,0.7-2.5c0-1.1-0.2-1.9-0.7-2.5C13.9,5.2,13.3,5,12.4,5 c-0.8,0-1.5,0.3-1.9,0.8C10.1,6.3,9.9,7.2,9.9,8.3 M16.4,8.3c0,1.4-0.4,2.5-1.1,3.3c-0.7,0.8-1.7,1.2-2.9,1.2 c-0.8,0-1.4-0.2-2-0.5c-0.6-0.4-1.1-0.9-1.4-1.5C8.7,10,8.5,9.2,8.5,8.3c0-1.4,0.3-2.5,1-3.3c0.7-0.8,1.7-1.2,2.9-1.2 c1.2,0,2.1,0.4,2.9,1.2C16,5.8,16.4,6.9,16.4,8.3 M24.5,12.6V7c0-0.7-0.2-1.2-0.5-1.6C23.7,5.1,23.2,5,22.5,5 c-0.9,0-1.6,0.2-2,0.7C20.2,6.2,20,7,20,8.1v4.5h-1.3V4h1.1l0.2,1.2H20c0.3-0.4,0.6-0.7,1.1-1c0.5-0.2,1-0.3,1.6-0.3 c1,0,1.8,0.2,2.3,0.7c0.5,0.5,0.8,1.3,0.8,2.4v5.6H24.5z M34,10.2c0,0.8-0.3,1.4-0.9,1.8c-0.6,0.4-1.4,0.6-2.5,0.6 c-1.1,0-2-0.2-2.7-0.5V11c0.4,0.2,0.9,0.4,1.3,0.5c0.5,0.1,0.9,0.2,1.4,0.2c0.7,0,1.2-0.1,1.6-0.3c0.4-0.2,0.5-0.5,0.5-1 c0-0.3-0.1-0.6-0.4-0.9C32,9.2,31.5,9,30.6,8.6c-0.8-0.3-1.4-0.6-1.7-0.8c-0.3-0.2-0.6-0.5-0.8-0.8c-0.2-0.3-0.2-0.6-0.2-1 c0-0.7,0.3-1.2,0.9-1.7c0.6-0.4,1.3-0.6,2.3-0.6c0.9,0,1.8,0.2,2.7,0.6l-0.5,1.1c-0.9-0.4-1.6-0.5-2.3-0.5c-0.6,0-1.1,0.1-1.4,0.3 c-0.3,0.2-0.5,0.5-0.5,0.8c0,0.2,0.1,0.4,0.2,0.6c0.1,0.2,0.3,0.3,0.6,0.5c0.3,0.1,0.8,0.4,1.5,0.6c1,0.4,1.7,0.7,2.1,1.1 C33.8,9.2,34,9.7,34,10.2 M36.1,12.6h1.3V4h-1.3V12.6z M36,1.7c0-0.3,0.1-0.5,0.2-0.7c0.1-0.1,0.3-0.2,0.5-0.2 c0.2,0,0.4,0.1,0.5,0.2c0.2,0.1,0.2,0.4,0.2,0.6s-0.1,0.5-0.2,0.7c-0.2,0.1-0.3,0.2-0.5,0.2c-0.2,0-0.4-0.1-0.5-0.2 C36.1,2.2,36,2,36,1.7L36,1.7z M41,6.7c0,0.6,0.2,1.1,0.5,1.4c0.3,0.3,0.8,0.5,1.4,0.5c1.3,0,1.9-0.6,1.9-1.8 c0-1.3-0.6-1.9-1.9-1.9c-0.6,0-1.1,0.2-1.4,0.5C41.2,5.6,41,6.1,41,6.7L41,6.7z M40.3,14c0,0.5,0.2,0.8,0.6,1.1 c0.4,0.2,1,0.4,1.7,0.4c1.1,0,1.9-0.2,2.4-0.5c0.5-0.3,0.8-0.8,0.8-1.3c0-0.5-0.1-0.8-0.4-1c-0.3-0.2-0.8-0.3-1.6-0.3h-1.6 c-0.6,0-1,0.1-1.4,0.4C40.5,13.1,40.3,13.5,40.3,14L40.3,14z M47.2,4v0.8L45.6,5c0.1,0.2,0.3,0.4,0.4,0.7c0.1,0.3,0.2,0.6,0.2,1 c0,0.8-0.3,1.5-0.9,2c-0.6,0.5-1.4,0.8-2.4,0.8c-0.3,0-0.5,0-0.7-0.1c-0.6,0.3-0.8,0.7-0.8,1.1c0,0.2,0.1,0.4,0.3,0.5 c0.2,0.1,0.5,0.2,1,0.2h1.5c0.9,0,1.6,0.2,2.1,0.6c0.5,0.4,0.7,1,0.7,1.7c0,0.9-0.4,1.7-1.1,2.2c-0.8,0.5-1.9,0.7-3.3,0.7 c-1.1,0-2-0.2-2.6-0.6c-0.6-0.4-0.9-1-0.9-1.8c0-0.5,0.2-1,0.5-1.4s0.8-0.6,1.4-0.8c-0.2-0.1-0.4-0.3-0.6-0.5 c-0.1-0.2-0.2-0.5-0.2-0.7c0-0.3,0.1-0.6,0.2-0.8c0.2-0.2,0.4-0.5,0.8-0.7c-0.4-0.2-0.8-0.5-1.1-0.9c-0.3-0.4-0.4-0.9-0.4-1.5 c0-0.9,0.3-1.7,0.8-2.2C41.2,4.1,42,3.8,43,3.8c0.4,0,0.9,0.1,1.2,0.2H47.2z M54.8,12.6V7c0-0.7-0.2-1.2-0.5-1.6 C54,5.1,53.5,5,52.8,5c-0.9,0-1.6,0.2-2,0.7c-0.4,0.5-0.6,1.3-0.6,2.4v4.5h-1.3V4H50l0.2,1.2h0.1c0.3-0.4,0.6-0.7,1.1-1 c0.5-0.2,1-0.3,1.6-0.3c1,0,1.8,0.2,2.3,0.7c0.5,0.5,0.8,1.3,0.8,2.4v5.6H54.8z"></path> </g> <g transform="translate(176 54)"> <path d="M3.6,11.2c-1.1,0-1.9-0.3-2.5-1C0.4,9.6,0.1,8.6,0.1,7.4c0-1.3,0.3-2.2,0.9-2.9c0.6-0.7,1.5-1,2.6-1c0.4,0,0.7,0,1.1,0.1 c0.4,0.1,0.6,0.2,0.8,0.3l-0.3,1C5,4.7,4.7,4.6,4.4,4.6S3.8,4.5,3.6,4.5c-1.5,0-2.3,1-2.3,2.9c0,0.9,0.2,1.6,0.6,2.1 c0.4,0.5,0.9,0.7,1.7,0.7c0.6,0,1.3-0.1,1.9-0.4v1C4.9,11.1,4.3,11.2,3.6,11.2 M8,7.3c0,1,0.2,1.7,0.6,2.2 c0.4,0.5,0.9,0.8,1.7,0.8s1.3-0.2,1.7-0.7c0.4-0.5,0.6-1.2,0.6-2.2c0-1-0.2-1.7-0.6-2.2c-0.4-0.5-1-0.7-1.7-0.7 c-0.7,0-1.3,0.2-1.7,0.7C8.2,5.7,8,6.4,8,7.3 M13.7,7.3c0,1.2-0.3,2.2-0.9,2.9c-0.6,0.7-1.5,1-2.6,1c-0.7,0-1.3-0.2-1.8-0.5 C7.9,10.5,7.5,10,7.2,9.4C6.9,8.8,6.8,8.1,6.8,7.3c0-1.2,0.3-2.2,0.9-2.9c0.6-0.7,1.5-1,2.5-1c1,0,1.9,0.3,2.5,1 C13.4,5.2,13.7,6.2,13.7,7.3 M20.8,11.1V6.3c0-0.6-0.1-1.1-0.4-1.4c-0.3-0.3-0.7-0.5-1.3-0.5c-0.8,0-1.4,0.2-1.7,0.6 c-0.4,0.4-0.5,1.1-0.5,2.1v3.9h-1.1V3.6h0.9l0.2,1h0.1c0.2-0.4,0.6-0.7,1-0.9c0.4-0.2,0.9-0.3,1.4-0.3c0.9,0,1.6,0.2,2,0.7 c0.5,0.4,0.7,1.1,0.7,2.1v4.9H20.8z M29.1,9.1c0,0.7-0.3,1.2-0.8,1.6c-0.5,0.4-1.2,0.6-2.2,0.6c-1,0-1.8-0.2-2.3-0.5V9.7 c0.4,0.2,0.7,0.3,1.2,0.4c0.4,0.1,0.8,0.2,1.2,0.2c0.6,0,1-0.1,1.4-0.3C27.9,9.8,28,9.5,28,9.2c0-0.3-0.1-0.5-0.4-0.7 c-0.3-0.2-0.7-0.5-1.5-0.7C25.5,7.4,25,7.2,24.7,7c-0.3-0.2-0.5-0.4-0.7-0.7c-0.1-0.2-0.2-0.5-0.2-0.9c0-0.6,0.2-1.1,0.7-1.4 c0.5-0.4,1.2-0.5,2-0.5c0.8,0,1.6,0.2,2.4,0.5l-0.4,0.9c-0.8-0.3-1.4-0.5-2-0.5c-0.5,0-0.9,0.1-1.2,0.3c-0.3,0.2-0.4,0.4-0.4,0.7 c0,0.2,0,0.4,0.2,0.5c0.1,0.1,0.3,0.3,0.5,0.4c0.2,0.1,0.7,0.3,1.3,0.6c0.9,0.3,1.5,0.7,1.8,1C29,8.1,29.1,8.6,29.1,9.1 M31,11.1 h1.1V3.6H31V11.1z M30.9,1.6c0-0.3,0.1-0.5,0.2-0.6c0.1-0.1,0.3-0.2,0.5-0.2c0.2,0,0.3,0.1,0.5,0.2c0.1,0.1,0.2,0.3,0.2,0.6 S32.1,2,32,2.2c-0.1,0.1-0.3,0.2-0.5,0.2c-0.2,0-0.3-0.1-0.5-0.2C30.9,2,30.9,1.8,30.9,1.6L30.9,1.6z M35.3,6 c0,0.5,0.1,0.9,0.4,1.2c0.3,0.3,0.7,0.4,1.2,0.4c1.1,0,1.7-0.5,1.7-1.6c0-1.1-0.6-1.7-1.7-1.7c-0.5,0-0.9,0.1-1.2,0.4 C35.4,5,35.3,5.4,35.3,6L35.3,6z M34.7,12.4c0,0.4,0.2,0.7,0.5,0.9c0.3,0.2,0.8,0.3,1.5,0.3c1,0,1.7-0.1,2.1-0.4 c0.5-0.3,0.7-0.7,0.7-1.2c0-0.4-0.1-0.7-0.4-0.8c-0.3-0.2-0.7-0.2-1.4-0.2h-1.4c-0.5,0-0.9,0.1-1.2,0.4 C34.8,11.5,34.7,11.9,34.7,12.4L34.7,12.4z M40.6,3.6v0.7l-1.4,0.2c0.1,0.2,0.2,0.4,0.3,0.6c0.1,0.3,0.2,0.5,0.2,0.9 c0,0.7-0.3,1.3-0.8,1.8c-0.5,0.4-1.2,0.7-2.1,0.7c-0.2,0-0.4,0-0.6-0.1c-0.5,0.3-0.7,0.6-0.7,1c0,0.2,0.1,0.4,0.3,0.5 c0.2,0.1,0.5,0.1,0.9,0.1H38c0.8,0,1.4,0.2,1.9,0.5c0.4,0.3,0.7,0.8,0.7,1.5c0,0.8-0.3,1.5-1,1.9c-0.7,0.4-1.6,0.7-2.9,0.7 c-1,0-1.7-0.2-2.3-0.5c-0.5-0.4-0.8-0.9-0.8-1.5c0-0.5,0.1-0.8,0.4-1.2s0.7-0.6,1.2-0.7c-0.2-0.1-0.4-0.2-0.5-0.4 c-0.1-0.2-0.2-0.4-0.2-0.6c0-0.3,0.1-0.5,0.2-0.7c0.1-0.2,0.4-0.4,0.7-0.6c-0.4-0.2-0.7-0.4-0.9-0.8C34.3,7,34.1,6.5,34.1,6 c0-0.8,0.2-1.5,0.7-1.9c0.5-0.4,1.2-0.7,2.1-0.7c0.4,0,0.7,0,1.1,0.1H40.6z M47.3,11.1V6.3c0-0.6-0.1-1.1-0.4-1.4 c-0.3-0.3-0.7-0.5-1.3-0.5c-0.8,0-1.4,0.2-1.7,0.6c-0.4,0.4-0.5,1.1-0.5,2.1v3.9h-1.1V3.6h0.9l0.2,1h0.1c0.2-0.4,0.6-0.7,1-0.9 c0.4-0.2,0.9-0.3,1.4-0.3c0.9,0,1.6,0.2,2,0.7c0.5,0.4,0.7,1.1,0.7,2.1v4.9H47.3z"></path> <path class="st1" d="M60.3,11.1V6.2c0-0.6-0.1-1-0.4-1.3c-0.3-0.3-0.7-0.4-1.2-0.4c-0.7,0-1.2,0.2-1.6,0.6c-0.3,0.4-0.5,1-0.5,1.9 v4.2h-1.1V6.2c0-0.6-0.1-1-0.4-1.3c-0.3-0.3-0.7-0.4-1.2-0.4c-0.7,0-1.2,0.2-1.6,0.6c-0.3,0.4-0.5,1.1-0.5,2.1v3.9h-1.1V3.6h0.9 l0.2,1h0.1c0.2-0.4,0.5-0.6,0.9-0.9c0.4-0.2,0.8-0.3,1.3-0.3c1.2,0,1.9,0.4,2.3,1.3h0.1c0.2-0.4,0.5-0.7,1-0.9 c0.4-0.2,0.9-0.3,1.5-0.3c0.8,0,1.5,0.2,1.9,0.7c0.4,0.4,0.6,1.1,0.6,2.1v4.9H60.3z M66.6,4.4c-0.6,0-1.1,0.2-1.4,0.6 c-0.4,0.4-0.6,0.9-0.6,1.6h3.9c0-0.7-0.2-1.3-0.5-1.6C67.7,4.6,67.2,4.4,66.6,4.4 M66.9,11.2c-1.1,0-2-0.3-2.6-1s-1-1.6-1-2.8 c0-1.2,0.3-2.2,0.9-2.9c0.6-0.7,1.4-1.1,2.4-1.1c0.9,0,1.7,0.3,2.2,0.9s0.8,1.4,0.8,2.4v0.7h-5.2c0,0.9,0.2,1.5,0.7,2 c0.4,0.5,1,0.7,1.8,0.7c0.8,0,1.6-0.2,2.4-0.5v1c-0.4,0.2-0.8,0.3-1.1,0.4C67.9,11.2,67.4,11.2,66.9,11.2 M76.8,11.1V6.3 c0-0.6-0.1-1.1-0.4-1.4c-0.3-0.3-0.7-0.5-1.3-0.5c-0.8,0-1.4,0.2-1.7,0.6c-0.4,0.4-0.5,1.1-0.5,2.1v3.9h-1.1V3.6h0.9l0.2,1h0.1 c0.2-0.4,0.6-0.7,1-0.9c0.4-0.2,0.9-0.3,1.4-0.3c0.9,0,1.6,0.2,2,0.7c0.5,0.4,0.7,1.1,0.7,2.1v4.9H76.8z M82.6,10.3 c0.2,0,0.4,0,0.6,0c0.2,0,0.3-0.1,0.4-0.1V11c-0.1,0.1-0.3,0.1-0.5,0.1c-0.2,0-0.5,0.1-0.6,0.1c-1.4,0-2.2-0.8-2.2-2.3V4.5h-1.1 V3.9l1.1-0.5l0.5-1.6h0.7v1.7h2.2v0.9h-2.2v4.4c0,0.5,0.1,0.8,0.3,1C82,10.2,82.3,10.3,82.6,10.3 M90,9.1c0,0.7-0.3,1.2-0.8,1.6 C88.7,11,88,11.2,87,11.2c-1,0-1.8-0.2-2.3-0.5V9.7c0.4,0.2,0.7,0.3,1.2,0.4c0.4,0.1,0.8,0.2,1.2,0.2c0.6,0,1-0.1,1.4-0.3 c0.3-0.2,0.5-0.5,0.5-0.9c0-0.3-0.1-0.5-0.4-0.7C88.3,8.2,87.8,8,87,7.7c-0.7-0.3-1.2-0.5-1.5-0.7c-0.3-0.2-0.5-0.4-0.7-0.7 c-0.1-0.2-0.2-0.5-0.2-0.9c0-0.6,0.2-1.1,0.7-1.4c0.5-0.4,1.2-0.5,2-0.5c0.8,0,1.6,0.2,2.4,0.5l-0.4,0.9c-0.8-0.3-1.4-0.5-2-0.5 c-0.5,0-0.9,0.1-1.2,0.3c-0.3,0.2-0.4,0.4-0.4,0.7c0,0.2,0.1,0.4,0.2,0.5C86,6,86.2,6.2,86.4,6.3c0.2,0.1,0.7,0.3,1.3,0.6 c0.9,0.3,1.5,0.7,1.8,1C89.8,8.1,90,8.6,90,9.1"></path> </g> <g transform="translate(325 86)"> <path d="M3.9,11.4c-1.1,0-1.9-0.3-2.5-1C0.8,9.7,0.5,8.8,0.5,7.6c0-1.3,0.3-2.2,0.9-2.9C2,4,2.9,3.6,4,3.6c0.4,0,0.7,0,1.1,0.1 C5.4,3.8,5.7,3.9,5.9,4L5.6,5C5.3,4.9,5,4.8,4.7,4.7S4.2,4.6,4,4.6c-1.5,0-2.3,1-2.3,2.9c0,0.9,0.2,1.6,0.6,2.1 c0.4,0.5,0.9,0.7,1.7,0.7c0.6,0,1.3-0.1,1.9-0.4v1C5.3,11.3,4.7,11.4,3.9,11.4 M8.3,7.5c0,1,0.2,1.7,0.6,2.2 c0.4,0.5,0.9,0.8,1.7,0.8s1.3-0.2,1.7-0.7c0.4-0.5,0.6-1.2,0.6-2.2c0-1-0.2-1.7-0.6-2.2c-0.4-0.5-1-0.7-1.7-0.7 c-0.7,0-1.3,0.2-1.7,0.7C8.5,5.8,8.3,6.5,8.3,7.5 M14,7.5c0,1.2-0.3,2.2-0.9,2.9c-0.6,0.7-1.5,1-2.6,1c-0.7,0-1.3-0.2-1.8-0.5 c-0.5-0.3-0.9-0.8-1.2-1.4C7.3,9,7.2,8.3,7.2,7.5c0-1.2,0.3-2.2,0.9-2.9c0.6-0.7,1.5-1,2.5-1c1,0,1.9,0.3,2.5,1 C13.7,5.4,14,6.3,14,7.5 M21.2,11.3V6.4c0-0.6-0.1-1.1-0.4-1.4c-0.3-0.3-0.7-0.5-1.3-0.5c-0.8,0-1.4,0.2-1.7,0.6 c-0.4,0.4-0.5,1.1-0.5,2.1v3.9H16V3.8H17l0.2,1h0.1c0.2-0.4,0.6-0.7,1-0.9c0.4-0.2,0.9-0.3,1.4-0.3c0.9,0,1.6,0.2,2,0.7 c0.5,0.4,0.7,1.1,0.7,2.1v4.9H21.2z M29.5,9.2c0,0.7-0.3,1.2-0.8,1.6c-0.5,0.4-1.2,0.6-2.2,0.6c-1,0-1.8-0.2-2.3-0.5V9.9 c0.4,0.2,0.7,0.3,1.2,0.4c0.4,0.1,0.8,0.2,1.2,0.2c0.6,0,1-0.1,1.4-0.3c0.3-0.2,0.5-0.5,0.5-0.9c0-0.3-0.1-0.5-0.4-0.7 c-0.3-0.2-0.7-0.5-1.5-0.7c-0.7-0.3-1.2-0.5-1.5-0.7c-0.3-0.2-0.5-0.4-0.7-0.7c-0.1-0.2-0.2-0.5-0.2-0.9c0-0.6,0.2-1.1,0.7-1.4 c0.5-0.4,1.2-0.5,2-0.5c0.8,0,1.6,0.2,2.4,0.5L28.9,5c-0.8-0.3-1.4-0.5-2-0.5c-0.5,0-0.9,0.1-1.2,0.3c-0.3,0.2-0.4,0.4-0.4,0.7 c0,0.2,0.1,0.4,0.2,0.5c0.1,0.1,0.3,0.3,0.5,0.4c0.2,0.1,0.7,0.3,1.3,0.6c0.9,0.3,1.5,0.7,1.8,1C29.3,8.3,29.5,8.7,29.5,9.2 M31.3,11.3h1.1V3.8h-1.1V11.3z M31.2,1.7c0-0.3,0.1-0.4,0.2-0.6C31.5,1,31.7,1,31.9,1c0.2,0,0.3,0.1,0.5,0.2 c0.1,0.1,0.2,0.3,0.2,0.6s-0.1,0.4-0.2,0.6c-0.1,0.1-0.3,0.2-0.5,0.2c-0.2,0-0.4-0.1-0.5-0.2S31.2,2,31.2,1.7L31.2,1.7z M35.6,6.2 c0,0.5,0.1,0.9,0.4,1.2c0.3,0.3,0.7,0.4,1.2,0.4c1.1,0,1.7-0.5,1.7-1.6c0-1.1-0.6-1.7-1.7-1.7c-0.5,0-0.9,0.1-1.2,0.4 C35.8,5.2,35.6,5.6,35.6,6.2L35.6,6.2z M35,12.5c0,0.4,0.2,0.7,0.5,0.9c0.3,0.2,0.8,0.3,1.5,0.3c1,0,1.7-0.1,2.1-0.4 c0.5-0.3,0.7-0.7,0.7-1.2c0-0.4-0.1-0.7-0.4-0.8c-0.3-0.2-0.7-0.2-1.4-0.2h-1.4c-0.5,0-0.9,0.1-1.2,0.4C35.1,11.7,35,12,35,12.5 L35,12.5z M41,3.8v0.7l-1.4,0.2c0.1,0.2,0.2,0.4,0.3,0.6c0.1,0.3,0.2,0.5,0.2,0.9c0,0.7-0.3,1.3-0.8,1.8c-0.5,0.4-1.2,0.7-2.1,0.7 c-0.2,0-0.4,0-0.6-0.1c-0.5,0.3-0.7,0.6-0.7,1c0,0.2,0.1,0.4,0.3,0.5c0.2,0.1,0.5,0.1,0.9,0.1h1.3c0.8,0,1.4,0.2,1.9,0.5 c0.4,0.3,0.7,0.8,0.7,1.5c0,0.8-0.3,1.5-1,1.9c-0.7,0.4-1.6,0.7-2.9,0.7c-1,0-1.7-0.2-2.3-0.5c-0.5-0.4-0.8-0.9-0.8-1.5 c0-0.5,0.1-0.8,0.4-1.2c0.3-0.3,0.7-0.6,1.2-0.7c-0.2-0.1-0.4-0.2-0.5-0.4c-0.1-0.2-0.2-0.4-0.2-0.6c0-0.3,0.1-0.5,0.2-0.7 c0.1-0.2,0.4-0.4,0.7-0.6c-0.4-0.2-0.7-0.4-0.9-0.8c-0.2-0.4-0.4-0.8-0.4-1.3c0-0.8,0.2-1.5,0.7-1.9c0.5-0.4,1.2-0.7,2.1-0.7 c0.4,0,0.7,0,1.1,0.1H41z M47.6,11.3V6.4c0-0.6-0.1-1.1-0.4-1.4c-0.3-0.3-0.7-0.5-1.3-0.5c-0.8,0-1.4,0.2-1.7,0.6 c-0.4,0.4-0.5,1.1-0.5,2.1v3.9h-1.1V3.8h0.9l0.2,1h0.1c0.2-0.4,0.6-0.7,1-0.9c0.4-0.2,0.9-0.3,1.4-0.3c0.9,0,1.6,0.2,2,0.7 c0.5,0.4,0.7,1.1,0.7,2.1v4.9H47.6z"></path> <path class="st1" d="M54,4.6c-0.6,0-1.1,0.2-1.4,0.6c-0.4,0.4-0.6,0.9-0.6,1.6h3.9c0-0.7-0.2-1.3-0.5-1.6C55,4.8,54.6,4.6,54,4.6 M54.3,11.4c-1.1,0-2-0.3-2.6-1s-1-1.6-1-2.8c0-1.2,0.3-2.2,0.9-2.9C52.2,4,53,3.6,54,3.6c0.9,0,1.7,0.3,2.2,0.9 C56.8,5.2,57,6,57,7v0.7h-5.2c0,0.9,0.2,1.5,0.7,2c0.4,0.5,1,0.7,1.8,0.7c0.8,0,1.6-0.2,2.4-0.5v1c-0.4,0.2-0.8,0.3-1.1,0.4 C55.2,11.4,54.8,11.4,54.3,11.4 M61.8,4.6c-0.6,0-1.1,0.2-1.4,0.6c-0.4,0.4-0.6,0.9-0.6,1.6h3.9c0-0.7-0.2-1.3-0.5-1.6 C62.9,4.8,62.4,4.6,61.8,4.6 M62.1,11.4c-1.1,0-2-0.3-2.6-1c-0.6-0.7-1-1.6-1-2.8c0-1.2,0.3-2.2,0.9-2.9C60,4,60.8,3.6,61.8,3.6 c0.9,0,1.7,0.3,2.2,0.9C64.6,5.2,64.9,6,64.9,7v0.7h-5.2c0,0.9,0.2,1.5,0.7,2c0.4,0.5,1,0.7,1.8,0.7c0.8,0,1.6-0.2,2.4-0.5v1 c-0.4,0.2-0.8,0.3-1.1,0.4C63.1,11.4,62.6,11.4,62.1,11.4 M71.6,9.2c0,0.7-0.3,1.2-0.8,1.6c-0.5,0.4-1.2,0.6-2.2,0.6 c-1,0-1.8-0.2-2.3-0.5V9.9c0.4,0.2,0.7,0.3,1.2,0.4c0.4,0.1,0.8,0.2,1.2,0.2c0.6,0,1-0.1,1.4-0.3c0.3-0.2,0.5-0.5,0.5-0.9 c0-0.3-0.1-0.5-0.4-0.7c-0.3-0.2-0.7-0.5-1.5-0.7c-0.7-0.3-1.2-0.5-1.5-0.7c-0.3-0.2-0.5-0.4-0.7-0.7c-0.1-0.2-0.2-0.5-0.2-0.9 c0-0.6,0.2-1.1,0.7-1.4c0.5-0.4,1.2-0.5,2-0.5c0.8,0,1.6,0.2,2.4,0.5L71.1,5c-0.8-0.3-1.4-0.5-2-0.5c-0.5,0-0.9,0.1-1.2,0.3 c-0.3,0.2-0.4,0.4-0.4,0.7c0,0.2,0,0.4,0.2,0.5c0.1,0.1,0.3,0.3,0.5,0.4c0.2,0.1,0.7,0.3,1.3,0.6c0.9,0.3,1.5,0.7,1.8,1 C71.5,8.3,71.6,8.7,71.6,9.2"></path> </g> <g transform="translate(311 256)"> <path d="M4.2,10.7c-1.1,0-1.9-0.3-2.5-1C1.1,9,0.8,8.1,0.8,6.9c0-1.3,0.3-2.2,0.9-2.9c0.6-0.7,1.5-1,2.6-1c0.4,0,0.7,0,1.1,0.1 C5.7,3.1,6,3.2,6.2,3.3l-0.3,1C5.6,4.2,5.3,4.1,5,4C4.7,4,4.5,3.9,4.2,3.9C2.7,3.9,2,4.9,2,6.9C2,7.8,2.1,8.5,2.5,9 c0.4,0.5,0.9,0.7,1.7,0.7c0.6,0,1.3-0.1,1.9-0.4v1C5.6,10.6,5,10.7,4.2,10.7 M8.6,6.8c0,1,0.2,1.7,0.6,2.2 c0.4,0.5,0.9,0.8,1.7,0.8s1.3-0.2,1.7-0.7c0.4-0.5,0.6-1.2,0.6-2.2c0-1-0.2-1.7-0.6-2.2c-0.4-0.5-1-0.7-1.7-0.7 c-0.7,0-1.3,0.2-1.7,0.7C8.8,5.1,8.6,5.8,8.6,6.8 M14.3,6.8C14.3,8,14,9,13.4,9.7c-0.6,0.7-1.5,1-2.5,1c-0.7,0-1.3-0.2-1.8-0.5 C8.6,9.9,8.2,9.5,7.9,8.9C7.6,8.3,7.5,7.6,7.5,6.8c0-1.2,0.3-2.2,0.9-2.9c0.6-0.7,1.5-1,2.5-1c1,0,1.9,0.3,2.5,1 C14,4.7,14.3,5.6,14.3,6.8 M21.5,10.6V5.7c0-0.6-0.1-1.1-0.4-1.4s-0.7-0.5-1.3-0.5c-0.8,0-1.4,0.2-1.7,0.6 c-0.4,0.4-0.5,1.1-0.5,2.1v3.9h-1.1V3.1h0.9l0.2,1h0.1c0.2-0.4,0.6-0.7,1-0.9c0.4-0.2,0.9-0.3,1.4-0.3c0.9,0,1.6,0.2,2,0.7 c0.5,0.4,0.7,1.1,0.7,2.1v4.9H21.5z M29.8,8.5c0,0.7-0.3,1.2-0.8,1.6c-0.5,0.4-1.2,0.6-2.2,0.6c-1,0-1.8-0.2-2.3-0.5V9.2 c0.4,0.2,0.7,0.3,1.2,0.4c0.4,0.1,0.8,0.2,1.2,0.2c0.6,0,1-0.1,1.4-0.3c0.3-0.2,0.5-0.5,0.5-0.9c0-0.3-0.1-0.5-0.4-0.7 c-0.3-0.2-0.7-0.5-1.5-0.7c-0.7-0.3-1.2-0.5-1.5-0.7C25,6.3,24.8,6,24.7,5.8c-0.1-0.2-0.2-0.5-0.2-0.9c0-0.6,0.2-1.1,0.7-1.4 c0.5-0.4,1.2-0.5,2-0.5c0.8,0,1.6,0.2,2.4,0.5l-0.4,0.9c-0.8-0.3-1.4-0.5-2-0.5c-0.5,0-0.9,0.1-1.2,0.3c-0.3,0.2-0.4,0.4-0.4,0.7 c0,0.2,0.1,0.4,0.2,0.5c0.1,0.1,0.3,0.3,0.5,0.4c0.2,0.1,0.7,0.3,1.3,0.6c0.9,0.3,1.5,0.7,1.8,1S29.8,8,29.8,8.5 M31.6,10.6h1.1 V3.1h-1.1V10.6z M31.5,1c0-0.3,0.1-0.4,0.2-0.6c0.1-0.1,0.3-0.2,0.5-0.2c0.2,0,0.3,0.1,0.5,0.2c0.1,0.1,0.2,0.3,0.2,0.6 s-0.1,0.4-0.2,0.6c-0.1,0.1-0.3,0.2-0.5,0.2c-0.2,0-0.4-0.1-0.5-0.2C31.6,1.5,31.5,1.3,31.5,1L31.5,1z M35.9,5.5 c0,0.5,0.1,0.9,0.4,1.2c0.3,0.3,0.7,0.4,1.2,0.4c1.1,0,1.7-0.5,1.7-1.6c0-1.1-0.6-1.7-1.7-1.7c-0.5,0-0.9,0.1-1.2,0.4 C36.1,4.5,35.9,4.9,35.9,5.5L35.9,5.5z M35.3,11.8c0,0.4,0.2,0.7,0.5,0.9c0.3,0.2,0.8,0.3,1.5,0.3c1,0,1.7-0.1,2.1-0.4 c0.5-0.3,0.7-0.7,0.7-1.2c0-0.4-0.1-0.7-0.4-0.8c-0.3-0.2-0.7-0.2-1.4-0.2h-1.4c-0.5,0-0.9,0.1-1.2,0.4 C35.4,11,35.3,11.4,35.3,11.8L35.3,11.8z M41.3,3.1v0.7L39.9,4c0.1,0.2,0.2,0.4,0.3,0.6c0.1,0.3,0.2,0.5,0.2,0.9 c0,0.7-0.3,1.3-0.8,1.8c-0.5,0.4-1.2,0.7-2.1,0.7c-0.2,0-0.4,0-0.6-0.1c-0.5,0.3-0.7,0.6-0.7,1c0,0.2,0.1,0.4,0.3,0.5 c0.2,0.1,0.5,0.1,0.9,0.1h1.3c0.8,0,1.4,0.2,1.9,0.5c0.4,0.3,0.7,0.8,0.7,1.5c0,0.8-0.3,1.5-1,1.9c-0.7,0.4-1.6,0.7-2.9,0.7 c-1,0-1.7-0.2-2.3-0.5c-0.5-0.4-0.8-0.9-0.8-1.5c0-0.5,0.1-0.8,0.4-1.2s0.7-0.6,1.2-0.7c-0.2-0.1-0.4-0.2-0.5-0.4 c-0.1-0.2-0.2-0.4-0.2-0.6c0-0.3,0.1-0.5,0.2-0.7c0.1-0.2,0.4-0.4,0.7-0.6c-0.4-0.2-0.7-0.4-0.9-0.8c-0.2-0.4-0.4-0.8-0.4-1.3 c0-0.8,0.2-1.5,0.7-1.9c0.5-0.4,1.2-0.7,2.1-0.7c0.4,0,0.7,0,1.1,0.1H41.3z M47.9,10.6V5.7c0-0.6-0.1-1.1-0.4-1.4 s-0.7-0.5-1.3-0.5c-0.8,0-1.4,0.2-1.7,0.6c-0.4,0.4-0.5,1.1-0.5,2.1v3.9h-1.1V3.1h0.9l0.2,1H44c0.2-0.4,0.6-0.7,1-0.9 c0.4-0.2,0.9-0.3,1.4-0.3c0.9,0,1.6,0.2,2,0.7c0.5,0.4,0.7,1.1,0.7,2.1v4.9H47.9z"></path> <path class="st1" d="M54.3,3.9c-0.6,0-1.1,0.2-1.4,0.6c-0.4,0.4-0.6,0.9-0.6,1.6h3.9c0-0.7-0.2-1.3-0.5-1.6 C55.3,4.1,54.8,3.9,54.3,3.9 M54.6,10.7c-1.1,0-2-0.3-2.6-1c-0.6-0.7-1-1.6-1-2.8c0-1.2,0.3-2.2,0.9-2.9c0.6-0.7,1.4-1.1,2.4-1.1 c0.9,0,1.7,0.3,2.2,0.9c0.5,0.6,0.8,1.4,0.8,2.4V7h-5.2c0,0.9,0.2,1.5,0.7,2c0.4,0.5,1,0.7,1.8,0.7c0.8,0,1.6-0.2,2.4-0.5v1 c-0.4,0.2-0.8,0.3-1.1,0.4C55.5,10.7,55.1,10.7,54.6,10.7 M62.1,3.9c-0.6,0-1.1,0.2-1.4,0.6c-0.4,0.4-0.6,0.9-0.6,1.6H64 c0-0.7-0.2-1.3-0.5-1.6C63.2,4.1,62.7,3.9,62.1,3.9 M62.4,10.7c-1.1,0-2-0.3-2.6-1c-0.6-0.7-1-1.6-1-2.8c0-1.2,0.3-2.2,0.9-2.9 c0.6-0.7,1.4-1.1,2.4-1.1c0.9,0,1.7,0.3,2.2,0.9c0.5,0.6,0.8,1.4,0.8,2.4V7H60c0,0.9,0.2,1.5,0.7,2c0.4,0.5,1,0.7,1.8,0.7 c0.8,0,1.6-0.2,2.4-0.5v1c-0.4,0.2-0.8,0.3-1.1,0.4C63.4,10.7,62.9,10.7,62.4,10.7"></path> </g> <g transform="translate(172 270)"> <path d="M4.4,10.6c-1.1,0-1.9-0.3-2.5-1C1.2,9,0.9,8,0.9,6.8c0-1.3,0.3-2.2,0.9-2.9c0.6-0.7,1.5-1,2.6-1c0.4,0,0.7,0,1.1,0.1 C5.9,3,6.2,3.1,6.4,3.2L6,4.2C5.8,4.1,5.5,4,5.2,4S4.6,3.9,4.4,3.9c-1.5,0-2.3,1-2.3,2.9c0,0.9,0.2,1.6,0.6,2.1 c0.4,0.5,0.9,0.7,1.7,0.7c0.6,0,1.3-0.1,1.9-0.4v1C5.8,10.5,5.1,10.6,4.4,10.6 M8.8,6.7c0,1,0.2,1.7,0.6,2.2 c0.4,0.5,0.9,0.8,1.7,0.8s1.3-0.2,1.7-0.7c0.4-0.5,0.6-1.2,0.6-2.2c0-1-0.2-1.7-0.6-2.2c-0.4-0.5-1-0.7-1.7-0.7 c-0.7,0-1.3,0.2-1.7,0.7C9,5,8.8,5.8,8.8,6.7 M14.5,6.7c0,1.2-0.3,2.2-0.9,2.9c-0.6,0.7-1.5,1-2.5,1c-0.7,0-1.3-0.2-1.8-0.5 C8.7,9.8,8.3,9.4,8,8.8C7.8,8.2,7.6,7.5,7.6,6.7c0-1.2,0.3-2.2,0.9-2.9c0.6-0.7,1.5-1,2.5-1c1,0,1.9,0.3,2.5,1 C14.2,4.6,14.5,5.5,14.5,6.7 M21.6,10.5V5.6c0-0.6-0.1-1.1-0.4-1.4s-0.7-0.5-1.3-0.5c-0.8,0-1.4,0.2-1.7,0.6 c-0.4,0.4-0.5,1.1-0.5,2.1v3.9h-1.1V3h0.9l0.2,1h0.1c0.2-0.4,0.6-0.7,1-0.9C19,3,19.5,2.9,20,2.9c0.9,0,1.6,0.2,2,0.7 c0.5,0.4,0.7,1.1,0.7,2.1v4.9H21.6z M29.9,8.4c0,0.7-0.3,1.2-0.8,1.6c-0.5,0.4-1.2,0.6-2.2,0.6c-1,0-1.8-0.2-2.3-0.5V9.1 c0.4,0.2,0.7,0.3,1.2,0.4c0.4,0.1,0.8,0.2,1.2,0.2c0.6,0,1-0.1,1.4-0.3c0.3-0.2,0.5-0.5,0.5-0.9c0-0.3-0.1-0.5-0.4-0.7 c-0.3-0.2-0.7-0.5-1.5-0.7c-0.7-0.3-1.2-0.5-1.5-0.7C25.2,6.2,25,6,24.8,5.7c-0.1-0.2-0.2-0.5-0.2-0.9c0-0.6,0.2-1.1,0.7-1.4 c0.5-0.4,1.2-0.5,2-0.5c0.8,0,1.6,0.2,2.4,0.5l-0.4,0.9c-0.8-0.3-1.4-0.5-2-0.5c-0.5,0-0.9,0.1-1.2,0.3c-0.3,0.2-0.4,0.4-0.4,0.7 c0,0.2,0.1,0.4,0.2,0.5c0.1,0.1,0.3,0.3,0.5,0.4C26.6,5.8,27,6,27.6,6.2c0.9,0.3,1.5,0.7,1.8,1S29.9,7.9,29.9,8.4 M31.8,10.5h1.1 V3h-1.1V10.5z M31.7,1c0-0.3,0.1-0.4,0.2-0.6c0.1-0.1,0.3-0.2,0.5-0.2c0.2,0,0.3,0.1,0.5,0.2S33,0.7,33,1s-0.1,0.4-0.2,0.6 c-0.1,0.1-0.3,0.2-0.5,0.2c-0.2,0-0.4-0.1-0.5-0.2C31.7,1.4,31.7,1.2,31.7,1L31.7,1z M36.1,5.4c0,0.5,0.1,0.9,0.4,1.2 C36.8,6.8,37.2,7,37.8,7c1.1,0,1.7-0.5,1.7-1.6c0-1.1-0.6-1.7-1.7-1.7c-0.5,0-0.9,0.1-1.2,0.4C36.2,4.4,36.1,4.8,36.1,5.4 L36.1,5.4z M35.5,11.7c0,0.4,0.2,0.7,0.5,0.9c0.3,0.2,0.8,0.3,1.5,0.3c1,0,1.7-0.1,2.1-0.4c0.5-0.3,0.7-0.7,0.7-1.2 c0-0.4-0.1-0.7-0.4-0.8c-0.3-0.2-0.7-0.2-1.4-0.2h-1.4c-0.5,0-0.9,0.1-1.2,0.4C35.6,10.9,35.5,11.3,35.5,11.7L35.5,11.7z M41.4,3 v0.7L40,3.9c0.1,0.2,0.2,0.4,0.3,0.6c0.1,0.3,0.2,0.5,0.2,0.9c0,0.7-0.3,1.3-0.8,1.8c-0.5,0.4-1.2,0.7-2.1,0.7 c-0.2,0-0.4,0-0.6-0.1c-0.5,0.3-0.7,0.6-0.7,1c0,0.2,0.1,0.4,0.3,0.5c0.2,0.1,0.5,0.1,0.9,0.1h1.3c0.8,0,1.4,0.2,1.9,0.5 c0.4,0.3,0.7,0.8,0.7,1.5c0,0.8-0.3,1.5-1,1.9c-0.7,0.4-1.6,0.7-2.9,0.7c-1,0-1.7-0.2-2.3-0.5c-0.5-0.4-0.8-0.9-0.8-1.5 c0-0.5,0.1-0.8,0.4-1.2S35.5,10,36,9.9c-0.2-0.1-0.4-0.2-0.5-0.4c-0.1-0.2-0.2-0.4-0.2-0.6c0-0.3,0.1-0.5,0.2-0.7 c0.1-0.2,0.4-0.4,0.7-0.6c-0.4-0.2-0.7-0.4-0.9-0.8c-0.2-0.4-0.4-0.8-0.4-1.3c0-0.8,0.2-1.5,0.7-1.9c0.5-0.4,1.2-0.7,2.1-0.7 c0.4,0,0.7,0,1.1,0.1H41.4z M48.1,10.5V5.6c0-0.6-0.1-1.1-0.4-1.4S47,3.8,46.4,3.8c-0.8,0-1.4,0.2-1.7,0.6 c-0.4,0.4-0.5,1.1-0.5,2.1v3.9H43V3h0.9l0.2,1h0.1c0.2-0.4,0.6-0.7,1-0.9C45.5,3,46,2.9,46.5,2.9c0.9,0,1.6,0.2,2,0.7 c0.5,0.4,0.7,1.1,0.7,2.1v4.9H48.1z"></path> <path class="st1" d="M61.1,10.5V5.6c0-0.6-0.1-1-0.4-1.3c-0.3-0.3-0.7-0.4-1.2-0.4c-0.7,0-1.2,0.2-1.6,0.6c-0.3,0.4-0.5,1-0.5,1.9 v4.2h-1.1V5.6c0-0.6-0.1-1-0.4-1.3c-0.3-0.3-0.7-0.4-1.2-0.4c-0.7,0-1.2,0.2-1.6,0.6c-0.3,0.4-0.5,1.1-0.5,2.1v3.9h-1.1V3h0.9 l0.2,1h0.1c0.2-0.4,0.5-0.6,0.9-0.9C54,3,54.5,2.9,54.9,2.9c1.2,0,1.9,0.4,2.3,1.3h0.1c0.2-0.4,0.5-0.7,1-0.9 c0.4-0.2,0.9-0.3,1.5-0.3c0.8,0,1.5,0.2,1.9,0.7c0.4,0.4,0.6,1.1,0.6,2.1v4.9H61.1z M67.4,3.8c-0.6,0-1.1,0.2-1.4,0.6 c-0.4,0.4-0.6,0.9-0.6,1.6h3.9c0-0.7-0.2-1.3-0.5-1.6C68.5,4,68,3.8,67.4,3.8 M67.7,10.6c-1.1,0-2-0.3-2.6-1c-0.6-0.7-1-1.6-1-2.8 c0-1.2,0.3-2.2,0.9-2.9c0.6-0.7,1.4-1.1,2.4-1.1c0.9,0,1.7,0.3,2.2,0.9c0.5,0.6,0.8,1.4,0.8,2.4v0.7h-5.2c0,0.9,0.2,1.5,0.7,2 c0.4,0.5,1,0.7,1.8,0.7c0.8,0,1.6-0.2,2.4-0.5v1c-0.4,0.2-0.8,0.3-1.1,0.4C68.7,10.6,68.3,10.6,67.7,10.6 M77.6,10.5V5.6 c0-0.6-0.1-1.1-0.4-1.4s-0.7-0.5-1.3-0.5c-0.8,0-1.4,0.2-1.7,0.6c-0.4,0.4-0.5,1.1-0.5,2.1v3.9h-1.1V3h0.9l0.2,1h0.1 c0.2-0.4,0.6-0.7,1-0.9C75,3,75.5,2.9,76,2.9c0.9,0,1.6,0.2,2,0.7c0.5,0.4,0.7,1.1,0.7,2.1v4.9H77.6z M83.4,9.7c0.2,0,0.4,0,0.6,0 c0.2,0,0.3-0.1,0.4-0.1v0.9c-0.1,0.1-0.3,0.1-0.5,0.1c-0.2,0-0.5,0.1-0.6,0.1c-1.4,0-2.2-0.8-2.2-2.3V3.9H80V3.3l1.1-0.5l0.5-1.6 h0.7V3h2.2v0.9h-2.2v4.4c0,0.5,0.1,0.8,0.3,1C82.8,9.6,83.1,9.7,83.4,9.7"></path> </g> <g transform="translate(71 91)"> <path d="M4.2,10.5c-1.1,0-1.9-0.3-2.5-1C1.1,8.9,0.8,7.9,0.8,6.7c0-1.3,0.3-2.2,0.9-2.9c0.6-0.7,1.5-1,2.6-1c0.4,0,0.7,0,1.1,0.1 C5.7,3,6,3.1,6.2,3.2l-0.3,1C5.6,4,5.3,3.9,5,3.9S4.5,3.8,4.2,3.8C2.7,3.8,2,4.7,2,6.7c0,0.9,0.2,1.6,0.6,2.1 c0.4,0.5,0.9,0.7,1.7,0.7c0.6,0,1.3-0.1,1.9-0.4v1C5.6,10.4,5,10.5,4.2,10.5 M8.6,6.6c0,1,0.2,1.7,0.6,2.2 c0.4,0.5,0.9,0.8,1.7,0.8s1.3-0.2,1.7-0.7c0.4-0.5,0.6-1.2,0.6-2.2c0-1-0.2-1.7-0.6-2.2c-0.4-0.5-1-0.7-1.7-0.7 c-0.7,0-1.3,0.2-1.7,0.7C8.8,5,8.6,5.7,8.6,6.6 M14.3,6.6c0,1.2-0.3,2.2-0.9,2.9c-0.6,0.7-1.5,1-2.5,1c-0.7,0-1.3-0.2-1.8-0.5 C8.6,9.8,8.2,9.3,7.9,8.7C7.6,8.1,7.5,7.4,7.5,6.6c0-1.2,0.3-2.2,0.9-2.9c0.6-0.7,1.5-1,2.5-1c1,0,1.9,0.3,2.5,1 C14,4.5,14.3,5.5,14.3,6.6 M21.5,10.4V5.6c0-0.6-0.1-1.1-0.4-1.4c-0.3-0.3-0.7-0.5-1.3-0.5c-0.8,0-1.4,0.2-1.7,0.6 c-0.4,0.4-0.5,1.1-0.5,2.1v3.9h-1.1V2.9h0.9l0.2,1h0.1c0.2-0.4,0.6-0.7,1-0.9c0.4-0.2,0.9-0.3,1.4-0.3c0.9,0,1.6,0.2,2,0.7 c0.5,0.4,0.7,1.1,0.7,2.1v4.9H21.5z M29.8,8.4c0,0.7-0.3,1.2-0.8,1.6c-0.5,0.4-1.2,0.6-2.2,0.6c-1,0-1.8-0.2-2.3-0.5V9 c0.4,0.2,0.7,0.3,1.2,0.4c0.4,0.1,0.8,0.2,1.2,0.2c0.6,0,1-0.1,1.4-0.3c0.3-0.2,0.5-0.5,0.5-0.9c0-0.3-0.1-0.5-0.4-0.7 C28,7.5,27.5,7.3,26.8,7c-0.7-0.3-1.2-0.5-1.5-0.7c-0.3-0.2-0.5-0.4-0.7-0.7c-0.1-0.2-0.2-0.5-0.2-0.9c0-0.6,0.2-1.1,0.7-1.4 c0.5-0.4,1.2-0.5,2-0.5c0.8,0,1.6,0.2,2.4,0.5l-0.4,0.9c-0.8-0.3-1.4-0.5-2-0.5c-0.5,0-0.9,0.1-1.2,0.3c-0.3,0.2-0.4,0.4-0.4,0.7 c0,0.2,0.1,0.4,0.2,0.5c0.1,0.1,0.3,0.3,0.5,0.4c0.2,0.1,0.7,0.3,1.3,0.6c0.9,0.3,1.5,0.7,1.8,1C29.6,7.4,29.8,7.9,29.8,8.4 M31.6,10.4h1.1V2.9h-1.1V10.4z M31.5,0.9c0-0.3,0.1-0.5,0.2-0.6c0.1-0.1,0.3-0.2,0.5-0.2c0.2,0,0.3,0.1,0.5,0.2 c0.1,0.1,0.2,0.3,0.2,0.6s-0.1,0.4-0.2,0.6c-0.1,0.1-0.3,0.2-0.5,0.2c-0.2,0-0.4-0.1-0.5-0.2C31.6,1.3,31.5,1.1,31.5,0.9L31.5,0.9 z M35.9,5.3c0,0.5,0.1,0.9,0.4,1.2c0.3,0.3,0.7,0.4,1.2,0.4c1.1,0,1.7-0.5,1.7-1.6c0-1.1-0.6-1.7-1.7-1.7c-0.5,0-0.9,0.1-1.2,0.4 C36.1,4.3,35.9,4.7,35.9,5.3L35.9,5.3z M35.3,11.7c0,0.4,0.2,0.7,0.5,0.9c0.3,0.2,0.8,0.3,1.5,0.3c1,0,1.7-0.1,2.1-0.4 c0.5-0.3,0.7-0.7,0.7-1.2c0-0.4-0.1-0.7-0.4-0.8c-0.3-0.2-0.7-0.2-1.4-0.2h-1.4c-0.5,0-0.9,0.1-1.2,0.4 C35.4,10.8,35.3,11.2,35.3,11.7L35.3,11.7z M41.3,2.9v0.7l-1.4,0.2C40,4,40.1,4.2,40.2,4.4c0.1,0.3,0.2,0.5,0.2,0.9 c0,0.7-0.3,1.3-0.8,1.8c-0.5,0.4-1.2,0.7-2.1,0.7c-0.2,0-0.4,0-0.6-0.1c-0.5,0.3-0.7,0.6-0.7,1c0,0.2,0.1,0.4,0.3,0.5 c0.2,0.1,0.5,0.1,0.9,0.1h1.3c0.8,0,1.4,0.2,1.9,0.5c0.4,0.3,0.7,0.8,0.7,1.5c0,0.8-0.3,1.5-1,1.9c-0.7,0.4-1.6,0.7-2.9,0.7 c-1,0-1.7-0.2-2.3-0.5c-0.5-0.4-0.8-0.9-0.8-1.5c0-0.5,0.1-0.8,0.4-1.2s0.7-0.6,1.2-0.7c-0.2-0.1-0.4-0.2-0.5-0.4 c-0.1-0.2-0.2-0.4-0.2-0.6c0-0.3,0.1-0.5,0.2-0.7c0.1-0.2,0.4-0.4,0.7-0.6c-0.4-0.2-0.7-0.4-0.9-0.8c-0.2-0.4-0.4-0.8-0.4-1.3 c0-0.8,0.2-1.5,0.7-1.9C36,3,36.7,2.8,37.6,2.8c0.4,0,0.7,0,1.1,0.1H41.3z M47.9,10.4V5.6c0-0.6-0.1-1.1-0.4-1.4 c-0.3-0.3-0.7-0.5-1.3-0.5c-0.8,0-1.4,0.2-1.7,0.6c-0.4,0.4-0.5,1.1-0.5,2.1v3.9h-1.1V2.9h0.9l0.2,1H44c0.2-0.4,0.6-0.7,1-0.9 c0.4-0.2,0.9-0.3,1.4-0.3c0.9,0,1.6,0.2,2,0.7c0.5,0.4,0.7,1.1,0.7,2.1v4.9H47.9z"></path> <path class="st1" d="M51.4,10.4h1.1V2.9h-1.1V10.4z M51.3,0.9c0-0.3,0.1-0.5,0.2-0.6c0.1-0.1,0.3-0.2,0.5-0.2 c0.2,0,0.3,0.1,0.5,0.2s0.2,0.3,0.2,0.6s-0.1,0.4-0.2,0.6c-0.1,0.1-0.3,0.2-0.5,0.2c-0.2,0-0.4-0.1-0.5-0.2 C51.4,1.3,51.3,1.1,51.3,0.9L51.3,0.9z M60.1,10.4V5.6c0-0.6-0.1-1.1-0.4-1.4c-0.3-0.3-0.7-0.5-1.3-0.5c-0.8,0-1.4,0.2-1.7,0.6 c-0.4,0.4-0.5,1.1-0.5,2.1v3.9h-1.1V2.9h0.9l0.2,1h0.1c0.2-0.4,0.6-0.7,1-0.9c0.4-0.2,0.9-0.3,1.4-0.3c0.9,0,1.6,0.2,2,0.7 c0.5,0.4,0.7,1.1,0.7,2.1v4.9H60.1z M64.3,5.3c0,0.5,0.1,0.9,0.4,1.2C65,6.8,65.5,6.9,66,6.9c1.1,0,1.7-0.5,1.7-1.6 c0-1.1-0.6-1.7-1.7-1.7c-0.5,0-0.9,0.1-1.2,0.4C64.4,4.3,64.3,4.7,64.3,5.3L64.3,5.3z M63.7,11.7c0,0.4,0.2,0.7,0.5,0.9 c0.3,0.2,0.8,0.3,1.5,0.3c1,0,1.7-0.1,2.1-0.4c0.5-0.3,0.7-0.7,0.7-1.2c0-0.4-0.1-0.7-0.4-0.8c-0.3-0.2-0.7-0.2-1.4-0.2h-1.4 c-0.5,0-0.9,0.1-1.2,0.4C63.8,10.8,63.7,11.2,63.7,11.7L63.7,11.7z M69.7,2.9v0.7l-1.4,0.2c0.1,0.2,0.2,0.4,0.3,0.6 c0.1,0.3,0.2,0.5,0.2,0.9C68.8,6,68.5,6.6,68,7c-0.5,0.4-1.2,0.7-2.1,0.7c-0.2,0-0.4,0-0.6-0.1c-0.5,0.3-0.7,0.6-0.7,1 c0,0.2,0.1,0.4,0.3,0.5c0.2,0.1,0.5,0.1,0.9,0.1H67c0.8,0,1.4,0.2,1.9,0.5c0.4,0.3,0.7,0.8,0.7,1.5c0,0.8-0.3,1.5-1,1.9 c-0.7,0.4-1.6,0.7-2.9,0.7c-1,0-1.7-0.2-2.3-0.5c-0.5-0.4-0.8-0.9-0.8-1.5c0-0.5,0.1-0.8,0.4-1.2s0.7-0.6,1.2-0.7 c-0.2-0.1-0.4-0.2-0.5-0.4c-0.1-0.2-0.2-0.4-0.2-0.6c0-0.3,0.1-0.5,0.2-0.7c0.1-0.2,0.4-0.4,0.7-0.6c-0.4-0.2-0.7-0.4-0.9-0.8 c-0.2-0.4-0.4-0.8-0.4-1.3c0-0.8,0.2-1.5,0.7-1.9C64.4,3,65.1,2.8,66,2.8c0.4,0,0.7,0,1.1,0.1H69.7z"></path> </g> <g transform="translate(57 241)"> <path d="M4,10.6c-1.1,0-1.9-0.3-2.5-1C0.9,8.9,0.6,7.9,0.6,6.7c0-1.3,0.3-2.2,0.9-2.9c0.6-0.7,1.5-1,2.6-1c0.4,0,0.7,0,1.1,0.1 C5.6,3,5.8,3.1,6,3.2l-0.3,1C5.4,4,5.2,4,4.9,3.9S4.3,3.8,4.1,3.8c-1.5,0-2.3,1-2.3,2.9c0,0.9,0.2,1.6,0.6,2.1 C2.7,9.3,3.3,9.6,4,9.6c0.6,0,1.3-0.1,1.9-0.4v1C5.4,10.4,4.8,10.6,4,10.6 M8.5,6.7c0,1,0.2,1.7,0.6,2.2c0.4,0.5,0.9,0.8,1.7,0.8 s1.3-0.2,1.7-0.7C12.8,8.4,13,7.6,13,6.7c0-1-0.2-1.7-0.6-2.2c-0.4-0.5-1-0.7-1.7-0.7C10,3.8,9.4,4,9,4.5C8.7,5,8.5,5.7,8.5,6.7 M14.2,6.7c0,1.2-0.3,2.2-0.9,2.9c-0.6,0.7-1.5,1-2.6,1c-0.7,0-1.3-0.2-1.8-0.5C8.4,9.8,8,9.3,7.7,8.7C7.4,8.1,7.3,7.5,7.3,6.7 c0-1.2,0.3-2.2,0.9-2.9c0.6-0.7,1.5-1,2.5-1c1,0,1.9,0.3,2.5,1C13.9,4.5,14.2,5.5,14.2,6.7 M21.3,10.4V5.6c0-0.6-0.1-1.1-0.4-1.4 s-0.7-0.5-1.3-0.5c-0.8,0-1.4,0.2-1.7,0.6c-0.4,0.4-0.5,1.1-0.5,2.1v3.9h-1.1V2.9h0.9l0.2,1h0.1c0.2-0.4,0.6-0.7,1-0.9 c0.4-0.2,0.9-0.3,1.4-0.3c0.9,0,1.6,0.2,2,0.7c0.5,0.4,0.7,1.1,0.7,2.1v4.9H21.3z M29.6,8.4c0,0.7-0.3,1.2-0.8,1.6 c-0.5,0.4-1.2,0.6-2.2,0.6c-1,0-1.8-0.2-2.3-0.5V9c0.4,0.2,0.7,0.3,1.2,0.4c0.4,0.1,0.8,0.2,1.2,0.2c0.6,0,1-0.1,1.4-0.3 c0.3-0.2,0.5-0.5,0.5-0.9c0-0.3-0.1-0.5-0.4-0.7c-0.3-0.2-0.7-0.5-1.5-0.7c-0.7-0.3-1.2-0.5-1.5-0.7c-0.3-0.2-0.5-0.4-0.7-0.7 c-0.1-0.2-0.2-0.5-0.2-0.9c0-0.6,0.2-1.1,0.7-1.4c0.5-0.4,1.2-0.5,2-0.5c0.8,0,1.6,0.2,2.4,0.5L29,4.2c-0.8-0.3-1.4-0.5-2-0.5 c-0.5,0-0.9,0.1-1.2,0.3c-0.3,0.2-0.4,0.4-0.4,0.7c0,0.2,0,0.4,0.2,0.5c0.1,0.1,0.3,0.3,0.5,0.4c0.2,0.1,0.7,0.3,1.3,0.6 c0.9,0.3,1.5,0.7,1.8,1C29.4,7.5,29.6,7.9,29.6,8.4 M31.4,10.4h1.1V2.9h-1.1V10.4z M31.3,0.9c0-0.3,0.1-0.4,0.2-0.6 c0.1-0.1,0.3-0.2,0.5-0.2c0.2,0,0.3,0.1,0.5,0.2c0.1,0.1,0.2,0.3,0.2,0.6s-0.1,0.4-0.2,0.6c-0.1,0.1-0.3,0.2-0.5,0.2 c-0.2,0-0.4-0.1-0.5-0.2C31.4,1.3,31.3,1.2,31.3,0.9L31.3,0.9z M35.7,5.3c0,0.5,0.1,0.9,0.4,1.2c0.3,0.3,0.7,0.4,1.2,0.4 c1.1,0,1.7-0.5,1.7-1.6c0-1.1-0.6-1.7-1.7-1.7c-0.5,0-0.9,0.1-1.2,0.4C35.9,4.3,35.7,4.8,35.7,5.3L35.7,5.3z M35.1,11.7 c0,0.4,0.2,0.7,0.5,0.9c0.3,0.2,0.8,0.3,1.5,0.3c1,0,1.7-0.1,2.1-0.4c0.5-0.3,0.7-0.7,0.7-1.2c0-0.4-0.1-0.7-0.4-0.8 c-0.3-0.2-0.7-0.2-1.4-0.2h-1.4c-0.5,0-0.9,0.1-1.2,0.4C35.3,10.9,35.1,11.2,35.1,11.7L35.1,11.7z M41.1,2.9v0.7l-1.4,0.2 C39.8,4,40,4.2,40.1,4.4c0.1,0.3,0.2,0.5,0.2,0.9c0,0.7-0.3,1.3-0.8,1.8c-0.5,0.4-1.2,0.7-2.1,0.7c-0.2,0-0.4,0-0.6-0.1 c-0.5,0.3-0.7,0.6-0.7,1c0,0.2,0.1,0.4,0.3,0.5c0.2,0.1,0.5,0.1,0.9,0.1h1.3c0.8,0,1.4,0.2,1.9,0.5c0.4,0.3,0.7,0.8,0.7,1.5 c0,0.8-0.3,1.5-1,1.9c-0.7,0.4-1.6,0.7-2.9,0.7c-1,0-1.7-0.2-2.3-0.5c-0.5-0.4-0.8-0.9-0.8-1.5c0-0.5,0.1-0.8,0.4-1.2 s0.7-0.6,1.2-0.7c-0.2-0.1-0.4-0.2-0.5-0.4C35.1,9.2,35,9,35,8.8c0-0.3,0.1-0.5,0.2-0.7c0.1-0.2,0.4-0.4,0.7-0.6 c-0.4-0.2-0.7-0.4-0.9-0.8c-0.2-0.4-0.4-0.8-0.4-1.3c0-0.8,0.2-1.5,0.7-1.9c0.5-0.4,1.2-0.7,2.1-0.7c0.4,0,0.7,0,1.1,0.1H41.1z M47.8,10.4V5.6c0-0.6-0.1-1.1-0.4-1.4S46.6,3.8,46,3.8c-0.8,0-1.4,0.2-1.7,0.6c-0.4,0.4-0.5,1.1-0.5,2.1v3.9h-1.1V2.9h0.9l0.2,1 h0.1c0.2-0.4,0.6-0.7,1-0.9c0.4-0.2,0.9-0.3,1.4-0.3c0.9,0,1.6,0.2,2,0.7c0.5,0.4,0.7,1.1,0.7,2.1v4.9H47.8z"></path> <path class="st1" d="M52,6.7c0,1,0.2,1.7,0.6,2.2c0.4,0.5,0.9,0.8,1.7,0.8s1.3-0.2,1.7-0.7c0.4-0.5,0.6-1.2,0.6-2.2 c0-1-0.2-1.7-0.6-2.2c-0.4-0.5-1-0.7-1.7-0.7c-0.7,0-1.3,0.2-1.7,0.7C52.2,5,52,5.7,52,6.7 M57.7,6.7c0,1.2-0.3,2.2-0.9,2.9 c-0.6,0.7-1.5,1-2.5,1c-0.7,0-1.3-0.2-1.8-0.5c-0.5-0.3-0.9-0.8-1.2-1.4c-0.3-0.6-0.4-1.3-0.4-2.1c0-1.2,0.3-2.2,0.9-2.9 c0.6-0.7,1.5-1,2.5-1c1,0,1.9,0.3,2.5,1C57.4,4.5,57.7,5.5,57.7,6.7 M63.1,2.8c0.3,0,0.6,0,0.9,0.1l-0.2,1.1 c-0.3-0.1-0.6-0.1-0.8-0.1c-0.6,0-1.1,0.2-1.6,0.7c-0.4,0.5-0.6,1.1-0.6,1.8v4h-1.1V2.9h0.9l0.1,1.4h0.1c0.3-0.5,0.6-0.9,1-1.1 C62.2,2.9,62.6,2.8,63.1,2.8"></path> </g> <path class="st0" d="M106,53.3c-24.3,0-44,19.7-44,44s19.7,44,44,44s44-19.7,44-44S130.3,53.3,106,53.3 M106,143.3 c-25.4,0-46-20.6-46-46s20.6-46,46-46s46,20.6,46,46S131.4,143.3,106,143.3 M307.3,3.2c-10.5,0-19,8.5-19,19s8.5,19,19,19 c10.5,0,19-8.5,19-19S317.8,3.2,307.3,3.2 M307.3,43.2c-11.6,0-21-9.4-21-21s9.4-21,21-21c11.6,0,21,9.4,21,21 S318.9,43.2,307.3,43.2"></path> <g transform="translate(372 148)"> <g transform="translate(10 31)"> <path d="M3.5,8.7c-0.9,0-1.5-0.3-2-0.8C1.1,7.4,0.9,6.6,0.9,5.7c0-1,0.2-1.7,0.7-2.3c0.5-0.5,1.2-0.8,2-0.8c0.3,0,0.6,0,0.8,0.1 c0.3,0.1,0.5,0.1,0.7,0.2L4.8,3.7C4.6,3.6,4.4,3.5,4.2,3.5C4,3.4,3.7,3.4,3.6,3.4c-1.2,0-1.8,0.8-1.8,2.3c0,0.7,0.1,1.3,0.4,1.7 c0.3,0.4,0.7,0.6,1.3,0.6c0.5,0,1-0.1,1.5-0.3v0.8C4.6,8.6,4.1,8.7,3.5,8.7 M7,5.6C7,6.4,7.2,7,7.5,7.4S8.2,8,8.8,8 c0.6,0,1-0.2,1.3-0.6c0.3-0.4,0.5-1,0.5-1.7c0-0.7-0.2-1.3-0.5-1.7C9.8,3.6,9.4,3.4,8.8,3.4c-0.6,0-1,0.2-1.3,0.6 C7.2,4.3,7,4.9,7,5.6 M11.5,5.6c0,1-0.2,1.7-0.7,2.2c-0.5,0.5-1.2,0.8-2,0.8c-0.5,0-1-0.1-1.4-0.4C7,8.1,6.6,7.7,6.4,7.3 c-0.2-0.5-0.3-1-0.3-1.6c0-1,0.2-1.7,0.7-2.2c0.5-0.5,1.1-0.8,2-0.8c0.8,0,1.5,0.3,2,0.8C11.3,4,11.5,4.7,11.5,5.6 M17.1,8.6V4.8 c0-0.5-0.1-0.8-0.3-1.1c-0.2-0.2-0.6-0.4-1-0.4c-0.6,0-1.1,0.2-1.4,0.5S14,4.7,14,5.5v3.1h-0.9V2.7h0.7l0.1,0.8h0 c0.2-0.3,0.4-0.5,0.8-0.7c0.3-0.2,0.7-0.2,1.1-0.2c0.7,0,1.2,0.2,1.6,0.5C17.8,3.5,18,4,18,4.8v3.8H17.1z M23.6,7 c0,0.5-0.2,1-0.6,1.3c-0.4,0.3-1,0.4-1.7,0.4c-0.8,0-1.4-0.1-1.8-0.4V7.5c0.3,0.1,0.6,0.3,0.9,0.3C20.7,7.9,21,8,21.3,8 c0.5,0,0.8-0.1,1.1-0.2c0.2-0.1,0.4-0.4,0.4-0.7c0-0.2-0.1-0.4-0.3-0.6c-0.2-0.2-0.6-0.4-1.2-0.6c-0.5-0.2-0.9-0.4-1.2-0.5 c-0.2-0.2-0.4-0.3-0.5-0.5c-0.1-0.2-0.2-0.4-0.2-0.7c0-0.5,0.2-0.9,0.6-1.1c0.4-0.3,0.9-0.4,1.6-0.4c0.6,0,1.3,0.1,1.9,0.4 l-0.3,0.7c-0.6-0.2-1.1-0.4-1.6-0.4c-0.4,0-0.7,0.1-1,0.2c-0.2,0.1-0.3,0.3-0.3,0.5c0,0.2,0,0.3,0.1,0.4c0.1,0.1,0.2,0.2,0.4,0.3 c0.2,0.1,0.5,0.2,1,0.4C22.5,5.5,23,5.8,23.2,6C23.5,6.3,23.6,6.6,23.6,7 M25.1,8.6H26V2.7h-0.9V8.6z M25,1.1 c0-0.2,0.1-0.4,0.2-0.4c0.1-0.1,0.2-0.1,0.4-0.1c0.1,0,0.3,0,0.4,0.1C26,0.8,26,0.9,26,1.1c0,0.2-0.1,0.4-0.2,0.4 c-0.1,0.1-0.2,0.1-0.4,0.1c-0.2,0-0.3,0-0.4-0.1C25,1.5,25,1.3,25,1.1L25,1.1z M28.4,4.6c0,0.4,0.1,0.7,0.3,0.9 c0.2,0.2,0.6,0.3,1,0.3c0.9,0,1.3-0.4,1.3-1.3c0-0.9-0.4-1.3-1.3-1.3c-0.4,0-0.7,0.1-1,0.3C28.6,3.8,28.4,4.2,28.4,4.6L28.4,4.6z M28,9.6c0,0.3,0.1,0.6,0.4,0.7c0.3,0.2,0.7,0.2,1.2,0.2c0.7,0,1.3-0.1,1.7-0.3s0.5-0.5,0.5-0.9c0-0.3-0.1-0.5-0.3-0.7 c-0.2-0.1-0.6-0.2-1.1-0.2h-1.1c-0.4,0-0.7,0.1-0.9,0.3C28.1,8.9,28,9.2,28,9.6L28,9.6z M32.7,2.7v0.6l-1.1,0.1 c0.1,0.1,0.2,0.3,0.3,0.5S32,4.3,32,4.6c0,0.6-0.2,1-0.6,1.4c-0.4,0.3-0.9,0.5-1.6,0.5c-0.2,0-0.3,0-0.5,0 c-0.4,0.2-0.6,0.5-0.6,0.8c0,0.2,0.1,0.3,0.2,0.4c0.1,0.1,0.4,0.1,0.7,0.1h1c0.6,0,1.1,0.1,1.5,0.4c0.3,0.3,0.5,0.7,0.5,1.2 c0,0.7-0.3,1.1-0.8,1.5c-0.5,0.3-1.3,0.5-2.3,0.5c-0.8,0-1.4-0.1-1.8-0.4c-0.4-0.3-0.6-0.7-0.6-1.2c0-0.4,0.1-0.7,0.3-0.9 s0.6-0.4,1-0.5C28.3,8.1,28.1,8,28,7.8c-0.1-0.1-0.2-0.3-0.2-0.5c0-0.2,0.1-0.4,0.2-0.6c0.1-0.2,0.3-0.3,0.5-0.5 c-0.3-0.1-0.6-0.3-0.7-0.6c-0.2-0.3-0.3-0.6-0.3-1c0-0.6,0.2-1.1,0.6-1.5c0.4-0.3,0.9-0.5,1.6-0.5c0.3,0,0.6,0,0.8,0.1H32.7z M37.9,8.6V4.8c0-0.5-0.1-0.8-0.3-1.1c-0.2-0.2-0.6-0.4-1-0.4c-0.6,0-1.1,0.2-1.4,0.5s-0.4,0.9-0.4,1.6v3.1h-0.9V2.7h0.7l0.1,0.8 h0C35,3.2,35.2,3,35.5,2.8c0.3-0.2,0.7-0.2,1.1-0.2c0.7,0,1.2,0.2,1.6,0.5c0.4,0.3,0.5,0.9,0.5,1.6v3.8H37.9z"></path> <path class="st1" d="M42.9,3.3c-0.5,0-0.8,0.2-1.1,0.5c-0.3,0.3-0.4,0.7-0.5,1.3h3.1c0-0.6-0.1-1-0.4-1.3S43.3,3.3,42.9,3.3 M43.1,8.7c-0.9,0-1.6-0.3-2.1-0.8c-0.5-0.5-0.8-1.3-0.8-2.2c0-1,0.2-1.7,0.7-2.3c0.5-0.6,1.1-0.8,1.9-0.8c0.7,0,1.3,0.2,1.8,0.7 c0.4,0.5,0.6,1.1,0.6,1.9v0.6h-4.1c0,0.7,0.2,1.2,0.5,1.6c0.3,0.4,0.8,0.5,1.4,0.5c0.6,0,1.3-0.1,1.9-0.4v0.8 c-0.3,0.1-0.6,0.2-0.9,0.3C43.8,8.7,43.5,8.7,43.1,8.7 M49,8c0.6,0,1.1-0.2,1.3-0.5s0.4-0.9,0.4-1.6V5.7c0-0.8-0.1-1.4-0.4-1.8 c-0.3-0.4-0.7-0.5-1.3-0.5c-0.5,0-0.9,0.2-1.2,0.6s-0.4,1-0.4,1.7c0,0.8,0.1,1.3,0.4,1.7C48.1,7.8,48.5,8,49,8L49,8z M50.8,7.8 L50.8,7.8c-0.5,0.6-1.1,0.9-1.9,0.9c-0.8,0-1.4-0.3-1.8-0.8c-0.4-0.5-0.6-1.3-0.6-2.2c0-1,0.2-1.7,0.6-2.3c0.4-0.5,1-0.8,1.8-0.8 c0.8,0,1.4,0.3,1.8,0.9h0.1l0-0.4l0-0.4V0.2h0.9v8.4h-0.7L50.8,7.8z"></path> </g> <path class="st0" d="M36.4,2.1c-18.7,0-34,15.3-34,34s15.3,34,34,34s34-15.3,34-34S55.2,2.1,36.4,2.1 M36.4,72.1 c-19.9,0-36-16.1-36-36s16.1-36,36-36s36,16.1,36,36S56.3,72.1,36.4,72.1"></path> </g> <g transform="translate(0 131)"> <g transform="translate(9 26)"> <path d="M3,8.9c-0.9,0-1.5-0.3-2-0.8C0.5,7.6,0.3,6.9,0.3,5.9c0-1,0.2-1.7,0.7-2.3c0.5-0.5,1.2-0.8,2-0.8c0.3,0,0.6,0,0.8,0.1 C4.1,3,4.4,3,4.5,3.1L4.3,3.9C4.1,3.8,3.8,3.7,3.6,3.7C3.4,3.6,3.2,3.6,3,3.6c-1.2,0-1.8,0.8-1.8,2.3c0,0.7,0.1,1.3,0.4,1.7 c0.3,0.4,0.7,0.6,1.3,0.6c0.5,0,1-0.1,1.5-0.3v0.8C4,8.8,3.6,8.9,3,8.9 M6.4,5.9c0,0.8,0.2,1.3,0.5,1.7C7.2,8,7.6,8.2,8.2,8.2 s1-0.2,1.3-0.6c0.3-0.4,0.5-1,0.5-1.7c0-0.7-0.2-1.3-0.5-1.7C9.2,3.8,8.8,3.6,8.2,3.6c-0.6,0-1,0.2-1.3,0.6S6.4,5.1,6.4,5.9 M10.9,5.9c0,1-0.2,1.7-0.7,2.2C9.7,8.7,9,8.9,8.2,8.9c-0.5,0-1-0.1-1.4-0.4C6.4,8.3,6.1,7.9,5.8,7.5C5.6,7,5.5,6.5,5.5,5.9 c0-1,0.2-1.7,0.7-2.2c0.5-0.5,1.1-0.8,2-0.8c0.8,0,1.5,0.3,2,0.8C10.7,4.2,10.9,4.9,10.9,5.9 M16.5,8.8V5c0-0.5-0.1-0.8-0.3-1.1 c-0.2-0.2-0.6-0.4-1-0.4c-0.6,0-1.1,0.2-1.4,0.5c-0.3,0.3-0.4,0.9-0.4,1.6v3.1h-0.9V2.9h0.7l0.1,0.8h0c0.2-0.3,0.4-0.5,0.8-0.7 c0.3-0.2,0.7-0.2,1.1-0.2c0.7,0,1.2,0.2,1.6,0.5c0.4,0.3,0.5,0.9,0.5,1.6v3.8H16.5z M23,7.2c0,0.5-0.2,1-0.6,1.3 c-0.4,0.3-1,0.4-1.7,0.4c-0.8,0-1.4-0.1-1.8-0.4V7.7c0.3,0.1,0.6,0.3,0.9,0.3c0.3,0.1,0.6,0.1,0.9,0.1c0.5,0,0.8-0.1,1.1-0.2 c0.2-0.1,0.4-0.4,0.4-0.7c0-0.2-0.1-0.4-0.3-0.6c-0.2-0.2-0.6-0.4-1.2-0.6c-0.5-0.2-0.9-0.4-1.2-0.5c-0.2-0.2-0.4-0.3-0.5-0.5 c-0.1-0.2-0.2-0.4-0.2-0.7c0-0.5,0.2-0.9,0.6-1.1c0.4-0.3,0.9-0.4,1.6-0.4c0.6,0,1.3,0.1,1.9,0.4l-0.3,0.7 C22,3.7,21.5,3.6,21,3.6c-0.4,0-0.7,0.1-1,0.2c-0.2,0.1-0.3,0.3-0.3,0.5c0,0.2,0,0.3,0.1,0.4C19.9,4.8,20,4.9,20.2,5 c0.2,0.1,0.5,0.2,1,0.4c0.7,0.3,1.2,0.5,1.4,0.8C22.9,6.5,23,6.8,23,7.2 M24.5,8.8h0.9V2.9h-0.9V8.8z M24.4,1.3 c0-0.2,0-0.4,0.2-0.4c0.1-0.1,0.2-0.1,0.4-0.1c0.1,0,0.3,0,0.4,0.1c0.1,0.1,0.2,0.2,0.2,0.4c0,0.2-0.1,0.4-0.2,0.4 c-0.1,0.1-0.2,0.1-0.4,0.1c-0.2,0-0.3,0-0.4-0.1C24.5,1.7,24.4,1.5,24.4,1.3L24.4,1.3z M27.9,4.8c0,0.4,0.1,0.7,0.3,0.9 c0.2,0.2,0.6,0.3,1,0.3c0.9,0,1.3-0.4,1.3-1.3c0-0.9-0.4-1.3-1.3-1.3c-0.4,0-0.7,0.1-1,0.3C28,4,27.9,4.4,27.9,4.8L27.9,4.8z M27.4,9.8c0,0.3,0.1,0.6,0.4,0.7c0.3,0.2,0.7,0.2,1.2,0.2c0.7,0,1.3-0.1,1.7-0.3c0.4-0.2,0.5-0.5,0.5-0.9c0-0.3-0.1-0.5-0.3-0.7 c-0.2-0.1-0.6-0.2-1.1-0.2h-1.1c-0.4,0-0.7,0.1-0.9,0.3C27.5,9.2,27.4,9.4,27.4,9.8L27.4,9.8z M32.1,2.9v0.6L31,3.6 c0.1,0.1,0.2,0.3,0.3,0.5c0.1,0.2,0.1,0.4,0.1,0.7c0,0.6-0.2,1-0.6,1.4c-0.4,0.3-0.9,0.5-1.6,0.5c-0.2,0-0.3,0-0.5,0 c-0.4,0.2-0.6,0.5-0.6,0.8c0,0.2,0.1,0.3,0.2,0.4c0.1,0.1,0.4,0.1,0.7,0.1h1c0.6,0,1.1,0.1,1.5,0.4C31.8,8.6,32,8.9,32,9.5 c0,0.7-0.3,1.1-0.8,1.5c-0.5,0.3-1.3,0.5-2.3,0.5c-0.8,0-1.4-0.1-1.8-0.4c-0.4-0.3-0.6-0.7-0.6-1.2c0-0.4,0.1-0.7,0.3-0.9 c0.2-0.3,0.6-0.4,1-0.5c-0.2-0.1-0.3-0.2-0.4-0.3c-0.1-0.1-0.2-0.3-0.2-0.5c0-0.2,0.1-0.4,0.2-0.6c0.1-0.2,0.3-0.3,0.5-0.5 c-0.3-0.1-0.6-0.3-0.7-0.6c-0.2-0.3-0.3-0.6-0.3-1c0-0.6,0.2-1.1,0.6-1.5C28,3,28.5,2.8,29.2,2.8c0.3,0,0.6,0,0.8,0.1H32.1z M37.3,8.8V5c0-0.5-0.1-0.8-0.3-1.1c-0.2-0.2-0.6-0.4-1-0.4c-0.6,0-1.1,0.2-1.4,0.5c-0.3,0.3-0.4,0.9-0.4,1.6v3.1h-0.9V2.9H34 l0.1,0.8h0c0.2-0.3,0.4-0.5,0.8-0.7c0.3-0.2,0.7-0.2,1.1-0.2c0.7,0,1.2,0.2,1.6,0.5C38,3.7,38.2,4.2,38.2,5v3.8H37.3z"></path> <path class="st1" d="M43.8,7.2c0,0.5-0.2,1-0.6,1.3c-0.4,0.3-1,0.4-1.7,0.4c-0.8,0-1.4-0.1-1.8-0.4V7.7C40,7.9,40.3,8,40.6,8.1 c0.3,0.1,0.6,0.1,0.9,0.1c0.5,0,0.8-0.1,1.1-0.2C42.9,7.8,43,7.6,43,7.3c0-0.2-0.1-0.4-0.3-0.6c-0.2-0.2-0.6-0.4-1.2-0.6 c-0.5-0.2-0.9-0.4-1.2-0.5s-0.4-0.3-0.5-0.5c-0.1-0.2-0.2-0.4-0.2-0.7c0-0.5,0.2-0.9,0.6-1.1c0.4-0.3,0.9-0.4,1.6-0.4 c0.6,0,1.3,0.1,1.9,0.4l-0.3,0.7c-0.6-0.2-1.1-0.4-1.6-0.4c-0.4,0-0.7,0.1-1,0.2c-0.2,0.1-0.3,0.3-0.3,0.5c0,0.2,0,0.3,0.1,0.4 C40.7,4.8,40.8,4.9,41,5c0.2,0.1,0.5,0.2,1,0.4c0.7,0.3,1.2,0.5,1.4,0.8C43.7,6.5,43.8,6.8,43.8,7.2"></path> </g> <path class="st0" d="M31,2.3c-16,0-29,13-29,29s13,29,29,29s29-13,29-29S47,2.3,31,2.3 M31,62.3c-17.1,0-31-13.9-31-31 s13.9-31,31-31s31,13.9,31,31S48.1,62.3,31,62.3"></path> </g> <path class="st0" d="M361,44.2c-27,0-49,22-49,49s22,49,49,49s49-22,49-49S388,44.2,361,44.2 M361,144.2c-28.1,0-51-22.9-51-51 s22.9-51,51-51s51,22.9,51,51S389.1,144.2,361,144.2 M342.3,222.9c-21.5,0-39,17.5-39,39c0,21.5,17.5,39,39,39 c21.5,0,39-17.5,39-39C381.3,240.4,363.8,222.9,342.3,222.9 M342.3,302.9c-22.6,0-41-18.4-41-41c0-22.6,18.4-41,41-41 c22.6,0,41,18.4,41,41C383.3,284.5,364.9,302.9,342.3,302.9 M89,208.3c-21.5,0-39,17.5-39,39s17.5,39,39,39s39-17.5,39-39 S110.5,208.3,89,208.3 M89,288.3c-22.6,0-41-18.4-41-41s18.4-41,41-41s41,18.4,41,41S111.6,288.3,89,288.3 M221,2 c-32.5,0-59,26.5-59,59s26.5,59,59,59s59-26.5,59-59S253.5,2,221,2 M221,122c-33.6,0-61-27.4-61-61s27.4-61,61-61s61,27.4,61,61 S254.6,122,221,122 M214.5,217.4c-32.5,0-59,26.5-59,59c0,32.5,26.5,59,59,59s59-26.5,59-59C273.5,243.9,247,217.4,214.5,217.4 M214.5,337.4c-33.6,0-61-27.4-61-61s27.4-61,61-61s61,27.4,61,61S248.1,337.4,214.5,337.4"></path>
</g>
</svg>
